<?xml version="1.0" standalone="no"?>
<!DOCTYPE svg PUBLIC "-//W3C//DTD SVG 20010904//EN"
 "http://www.w3.org/TR/2001/REC-SVG-20010904/DTD/svg10.dtd">
<svg version="1.0" xmlns="http://www.w3.org/2000/svg"
 width="225.000000pt" height="225.000000pt" viewBox="0 0 225.000000 225.000000"
 preserveAspectRatio="xMidYMid meet">
<metadata>
Created by potrace 1.16, written by Peter Selinger 2001-2019
</metadata>
<g transform="translate(0.000000,225.000000) scale(0.100000,-0.100000)"
fill="#000000" stroke="none">
<path d="M510 1957 c-93 -26 -173 -96 -206 -183 -18 -46 -19 -85 -19 -654 0
-599 0 -605 22 -652 30 -66 95 -132 156 -159 50 -23 61 -24 355 -27 166 -2
302 -1 302 3 0 3 -11 27 -24 53 -13 26 -29 66 -36 90 l-13 42 -255 0 -254 0
-34 34 -34 34 0 481 0 481 655 0 655 0 0 -148 0 -149 43 -13 c23 -7 63 -23 89
-36 26 -13 50 -24 53 -24 4 0 5 136 3 303 l-3 302 -28 57 c-32 65 -89 121
-156 152 -45 21 -57 21 -636 23 -445 2 -601 -1 -635 -10z"/>
<path d="M589 1341 l-24 -19 0 -361 c0 -333 1 -362 18 -378 16 -16 39 -18 213
-18 194 0 196 0 215 24 18 22 19 43 19 373 l0 349 -25 24 c-24 25 -26 25 -208
25 -167 0 -187 -2 -208 -19z m301 -381 l0 -260 -95 0 -95 0 0 260 0 260 95 0
95 0 0 -260z"/>
<path d="M1165 1348 c-11 -6 -23 -16 -27 -22 -14 -21 -8 -66 12 -86 19 -19 33
-20 254 -20 212 0 236 2 257 18 31 26 31 78 0 104 -21 16 -44 18 -250 18 -149
-1 -233 -4 -246 -12z"/>
<path d="M1551 1073 c-26 -104 -95 -163 -190 -163 -27 0 -62 5 -77 10 -34 13
-43 6 -83 -75 l-30 -60 39 -40 c21 -22 44 -53 49 -68 26 -68 -1 -173 -55 -216
-32 -25 -30 -46 9 -111 24 -41 38 -54 52 -52 115 16 144 15 189 -12 51 -30 79
-71 96 -139 l12 -47 79 0 78 0 10 37 c6 21 11 42 11 47 0 6 12 27 26 48 46 66
136 93 223 68 43 -12 52 -5 91 73 l30 61 -39 40 c-46 47 -61 81 -61 136 0 55
15 89 61 136 l39 40 -30 61 c-39 77 -50 86 -84 73 -15 -5 -51 -10 -80 -10 -94
0 -159 59 -186 168 l-11 42 -78 0 -79 0 -11 -47z m149 -338 c89 -46 104 -159
29 -231 -26 -25 -38 -29 -89 -29 -51 0 -63 4 -90 30 -115 110 10 302 150 230z"/>
</g>
</svg>
