<?xml version="1.0" standalone="no"?>
<!DOCTYPE svg PUBLIC "-//W3C//DTD SVG 20010904//EN"
 "http://www.w3.org/TR/2001/REC-SVG-20010904/DTD/svg10.dtd">
<svg version="1.0" xmlns="http://www.w3.org/2000/svg"
 width="200.000000pt" height="200.000000pt" viewBox="0 0 200.000000 200.000000"
 preserveAspectRatio="xMidYMid meet">
<metadata>
Created by potrace 1.16, written by Peter Selinger 2001-2019
</metadata>
<g transform="translate(0.000000,200.000000) scale(0.100000,-0.100000)"
fill="#000000" stroke="none">
<path d="M378 1911 l-33 -29 0 -882 0 -882 33 -29 32 -29 443 0 442 0 183 183
182 183 -2 728 -3 728 -33 29 -32 29 -590 0 -590 0 -32 -29z m1212 -754 l0
-712 -140 -140 -140 -140 0 112 c0 133 0 133 114 133 l76 0 0 31 0 31 -101 -4
c-96 -3 -102 -4 -125 -31 -23 -27 -24 -35 -24 -168 l0 -139 -420 0 -420 0 0
870 0 870 590 0 590 0 0 -713z"/>
<path d="M800 1720 l0 -30 200 0 200 0 0 30 0 30 -200 0 -200 0 0 -30z"/>
<path d="M858 1559 l-138 -69 0 -193 0 -193 140 -69 140 -69 140 69 140 69 0
193 0 193 -140 70 c-77 38 -141 70 -142 69 -2 0 -65 -31 -140 -70z m292 -74
c17 -9 30 -17 30 -19 0 -2 -40 -29 -90 -60 l-90 -56 -35 21 c-19 12 -33 25
-30 30 6 9 166 99 178 99 4 0 21 -7 37 -15z m-267 -135 l87 -53 0 -89 0 -88
30 0 30 0 0 88 0 89 88 53 c48 29 90 55 95 57 4 2 7 -56 7 -129 l0 -134 -110
-54 -110 -54 -110 54 -110 54 0 134 c0 73 3 131 8 129 4 -2 46 -28 95 -57z"/>
<path d="M594 896 c-3 -8 -4 -23 -2 -33 3 -17 26 -18 408 -18 l405 0 0 30 0
30 -403 3 c-344 2 -403 0 -408 -12z"/>
<path d="M590 720 l0 -30 410 0 410 0 0 30 0 30 -410 0 -410 0 0 -30z"/>
<path d="M590 560 l0 -30 410 0 410 0 0 30 0 30 -410 0 -410 0 0 -30z"/>
<path d="M594 426 c-3 -8 -4 -23 -2 -33 3 -17 21 -18 268 -18 l265 0 0 30 0
30 -263 3 c-222 2 -263 0 -268 -12z"/>
</g>
</svg>
